<!-- Generator: Adobe Illustrator 24.1.2, SVG Export Plug-In  -->
<svg version="1.1" xmlns="http://www.w3.org/2000/svg" xmlns:xlink="http://www.w3.org/1999/xlink" x="0px" y="0px" width="133.8px" height="20.7px" viewBox="0 0 133.8 20.7" style="overflow:visible;enable-background:new 0 0 133.8 20.7;" xml:space="preserve">
<defs>
</defs>
<g>
	<path d="M30.9,1.1c-0.1-0.3-0.3-0.5-0.5-0.7c-0.2-0.2-0.3-0.3-0.5-0.3C29.7,0,29.6,0,29.4,0c-1.9,1-4.1,1.7-6.5,2.2   c-2.3,0.5-4.7,0.7-7.2,0.7c-2.5,0-4.9-0.2-7.2-0.7C6.2,1.7,4.1,1,2.1,0C2,0,1.8,0,1.7,0.1C1.5,0.2,1.3,0.3,1.1,0.4   C0.9,0.6,0.8,0.9,0.6,1.1C0.4,1.4,0.3,1.8,0.2,2.2C0,3.3-0.1,4.1,0.1,4.7c0.1,0.3,0.2,0.5,0.4,0.6C0.6,5.5,0.8,5.6,1,5.7   c2,0.4,4,0.7,5.8,0.9c1.9,0.2,4,0.4,6.3,0.5l0.3,5c-1.3-0.1-2.5-0.3-3.5-0.5c-1.2-0.2-2.4-0.6-3.5-0.9c-0.6,0.1-1,0.8-1.4,2   c-0.1,0.8-0.1,1.4,0.1,1.8c0.1,0.2,0.1,0.3,0.2,0.4c0.1,0.1,0.2,0.2,0.3,0.3c1.2,0.2,2.5,0.4,4,0.5c1.3,0.1,2.7,0.2,4.4,0.3   l0.3,3.8c0.1,0.3,0.3,0.4,0.6,0.6c0.3,0.1,0.6,0.2,1,0.2c0.4,0,0.7-0.1,1-0.2c0.3-0.1,0.5-0.3,0.6-0.6l0.3-3.8   c1.6-0.1,3.1-0.2,4.4-0.3c1.5-0.2,2.8-0.3,4-0.5c0.1-0.1,0.2-0.2,0.3-0.3c0.1-0.1,0.2-0.3,0.2-0.4c0.1-0.4,0.2-1,0.1-1.8   c-0.2-0.7-0.5-1.2-0.7-1.5c-0.2-0.3-0.5-0.5-0.7-0.5c-1.1,0.4-2.3,0.7-3.6,0.9c-1.1,0.2-2.2,0.3-3.5,0.5l0.4-5   c2.3-0.1,4.4-0.3,6.3-0.5c1.8-0.2,3.8-0.5,5.8-0.9c0.2-0.2,0.3-0.3,0.5-0.4c0.2-0.2,0.3-0.4,0.4-0.6c0.2-0.6,0.2-1.4-0.1-2.5   C31.2,1.8,31.1,1.4,30.9,1.1"/>
	<path d="M52.2,4.7c1,0,1.8,0.2,2.6,0.5c0.8,0.4,1.4,0.8,1.9,1.5s0.9,1.3,1.2,2.1c0.3,0.8,0.4,1.7,0.4,2.6c0,0.9-0.1,1.8-0.4,2.6   c-0.3,0.8-0.7,1.5-1.2,2.1s-1.2,1.1-1.9,1.4c-0.8,0.4-1.6,0.5-2.6,0.5c-1,0-1.8-0.2-2.6-0.5c-0.8-0.4-1.4-0.8-1.9-1.4   s-0.9-1.3-1.2-2.1c-0.3-0.8-0.4-1.7-0.4-2.6c0-0.9,0.1-1.8,0.4-2.6c0.3-0.8,0.7-1.5,1.2-2.1s1.2-1.1,1.9-1.5   C50.4,4.9,51.2,4.7,52.2,4.7 M52.2,6.5c-0.7,0-1.3,0.1-1.8,0.4s-0.9,0.6-1.2,1.1c-0.3,0.5-0.5,1-0.7,1.6c-0.1,0.6-0.2,1.2-0.2,1.8   s0.1,1.2,0.2,1.8c0.2,0.6,0.4,1.1,0.7,1.6c0.3,0.5,0.7,0.8,1.2,1.1s1.1,0.4,1.8,0.4c0.7,0,1.3-0.1,1.8-0.4s0.9-0.6,1.2-1.1   c0.3-0.5,0.5-1,0.7-1.6c0.1-0.6,0.2-1.2,0.2-1.8s-0.1-1.2-0.2-1.8c-0.2-0.6-0.4-1.1-0.7-1.6c-0.3-0.5-0.7-0.8-1.2-1.1   S52.9,6.5,52.2,6.5"/>
	<path d="M64,5h2.3v7.5c0,0.4,0,0.9,0.1,1.3c0,0.4,0.2,0.8,0.4,1.2s0.5,0.6,0.9,0.9c0.4,0.2,1,0.3,1.7,0.3c0.7,0,1.3-0.1,1.7-0.3   c0.4-0.2,0.7-0.5,0.9-0.9c0.2-0.4,0.3-0.8,0.4-1.2c0-0.4,0.1-0.9,0.1-1.3V5h2.3v8.2c0,0.8-0.1,1.5-0.4,2.2s-0.6,1.1-1.1,1.5   c-0.5,0.4-1,0.7-1.7,0.9c-0.6,0.2-1.4,0.3-2.2,0.3s-1.5-0.1-2.2-0.3c-0.6-0.2-1.2-0.5-1.7-0.9s-0.8-0.9-1.1-1.5S64,14.1,64,13.2V5z   "/>
	<polygon points="79.7,5 90.1,5 90.1,6.9 86,6.9 86,17.9 83.8,17.9 83.8,6.9 79.7,6.9  "/>
	<polygon points="95.4,5 97.7,5 97.7,15.9 104.2,15.9 104.2,17.9 95.4,17.9  "/>
	<polygon points="109.5,5 118.8,5 118.8,6.9 111.8,6.9 111.8,10.3 118.2,10.3 118.2,12.1 111.8,12.1 111.8,15.9 118.9,15.9    118.9,17.9 109.5,17.9  "/>
	<polygon points="123.4,5 133.8,5 133.8,6.9 129.7,6.9 129.7,17.9 127.5,17.9 127.5,6.9 123.4,6.9  "/>
</g>
</svg>